<svg width="24" height="24" viewBox="0 0 24 24" fill="none" xmlns="http://www.w3.org/2000/svg">
<g clip-path="url(#clip0)">
<path d="M9.87381 11.2799C10.3719 11.0294 10.7484 10.7504 11.0064 10.4489C11.4654 9.90583 11.692 9.18577 11.692 8.2932C11.692 7.42463 11.4654 6.68207 11.0124 6.05952C10.2563 5.04543 8.97674 4.52639 7.16759 4.49939H0V19.1301H6.68305C7.43611 19.1301 8.13367 19.0656 8.77872 18.9336C9.42377 18.8001 9.98182 18.5555 10.4544 18.1985C10.8744 17.888 11.2254 17.5025 11.5044 17.0479C11.9455 16.3609 12.166 15.5823 12.166 14.7152C12.166 13.8752 11.9725 13.1596 11.5885 12.5715C11.1999 11.9835 10.6299 11.553 9.87381 11.2799ZM2.95674 7.0406H6.18501C6.89457 7.0406 7.47961 7.1171 7.93865 7.26862C8.46969 7.48913 8.73522 7.93767 8.73522 8.62173C8.73522 9.23528 8.5327 9.66431 8.13217 9.90583C7.72863 10.1474 7.20509 10.2689 6.56304 10.2689H2.95674V7.0406ZM8.06166 16.3339C7.70463 16.5064 7.20209 16.5919 6.55854 16.5919H2.95674V12.6901H6.60804C7.24409 12.6946 7.73914 12.7786 8.09316 12.9361C8.72322 13.2211 9.03674 13.7431 9.03674 14.5067C9.03674 15.4068 8.71272 16.0128 8.06166 16.3339Z" fill="black"/>
<path d="M21.6933 5.18201H15.3373V7.00315H21.6933V5.18201Z" fill="black"/>
<path d="M23.9015 12.369C23.7695 11.5215 23.4785 10.7759 23.0254 10.1323C22.5289 9.40328 21.8988 8.86924 21.1323 8.53171C20.3687 8.19268 19.5091 8.02317 18.5521 8.02467C16.9454 8.02467 15.6403 8.52721 14.6307 9.52479C13.6242 10.5254 13.1201 11.964 13.1201 13.8391C13.1201 15.8388 13.6767 17.2834 14.7958 18.17C15.9103 19.0581 17.1974 19.5006 18.6586 19.5006C20.4272 19.5006 21.8028 18.9741 22.7854 17.924C23.414 17.2609 23.7695 16.6084 23.8475 15.9678H20.9193C20.7497 16.2843 20.5532 16.5319 20.3282 16.7119C19.9202 17.0419 19.3891 17.2069 18.7381 17.2069C18.1185 17.2069 17.5935 17.0704 17.1554 16.7989C16.4324 16.3638 16.0544 15.6018 16.0064 14.5172H23.9975C24.0095 13.5826 23.9795 12.8641 23.9015 12.369ZM16.0784 12.6495C16.1834 11.946 16.4384 11.3879 16.8434 10.9754C17.2485 10.5644 17.8215 10.3574 18.5551 10.3559C19.2316 10.3559 19.7972 10.5494 20.2577 10.9379C20.7122 11.3294 20.9688 11.898 21.0213 12.6495H16.0784Z" fill="black"/>
</g>
<defs>
<clipPath id="clip0">
<rect width="24" height="24" fill="white"/>
</clipPath>
</defs>
</svg>
