<svg width="160" height="160" viewBox="0 0 160 160" fill="none" xmlns="http://www.w3.org/2000/svg">
<g clip-path="url(#clip0)">
<path d="M53.3537 160C60.4261 160 67.2089 157.191 72.2099 152.19C77.2108 147.189 80.0203 140.406 80.0203 133.333V106.667H53.3537C46.2812 106.667 39.4985 109.476 34.4975 114.477C29.4965 119.478 26.687 126.261 26.687 133.333C26.687 140.406 29.4965 147.189 34.4975 152.19C39.4985 157.191 46.2812 160 53.3537 160V160Z" fill="#0ACF83"/>
<path d="M26.687 79.9999C26.687 72.9275 29.4965 66.1447 34.4975 61.1437C39.4985 56.1428 46.2812 53.3333 53.3537 53.3333H80.0203V106.667H53.3537C46.2812 106.667 39.4985 103.857 34.4975 98.8561C29.4965 93.8551 26.687 87.0724 26.687 79.9999V79.9999Z" fill="#A259FF"/>
<path d="M26.687 26.6667C26.687 19.5978 29.4937 12.8182 34.4901 7.81785C39.4866 2.81748 46.264 0.00552252 53.3328 0L79.9995 0V53.3333H53.3537C46.2812 53.3333 39.4985 50.5238 34.4975 45.5228C29.4965 40.5219 26.687 33.7391 26.687 26.6667V26.6667Z" fill="#F24E1E"/>
<path d="M80.021 0H106.688C113.76 0 120.543 2.80952 125.544 7.81049C130.545 12.8115 133.354 19.5942 133.354 26.6667C133.354 33.7391 130.545 40.5219 125.544 45.5228C120.543 50.5238 113.76 53.3333 106.688 53.3333H80.021V0Z" fill="#FF7262"/>
<path d="M133.354 79.9999C133.354 87.0724 130.545 93.8551 125.544 98.8561C120.543 103.857 113.76 106.667 106.688 106.667C99.6152 106.667 92.8325 103.857 87.8315 98.8561C82.8305 93.8551 80.021 87.0724 80.021 79.9999C80.021 72.9275 82.8305 66.1447 87.8315 61.1437C92.8325 56.1428 99.6152 53.3333 106.688 53.3333C113.76 53.3333 120.543 56.1428 125.544 61.1437C130.545 66.1447 133.354 72.9275 133.354 79.9999V79.9999Z" fill="#1ABCFE"/>
</g>
<defs>
<clipPath id="clip0">
<rect width="160" height="160" fill="white"/>
</clipPath>
</defs>
</svg>
